<svg xmlns="http://www.w3.org/2000/svg" width="24" height="24" viewBox="0 0 24 24">
    <defs>
        <filter id="tbw6rlw6ja">
            <feColorMatrix in="SourceGraphic" values="0 0 0 0 0.678431 0 0 0 0 0.709804 0 0 0 0 0.741176 0 0 0 1.000000 0"/>
        </filter>
        <filter id="cq93jxjrhb">
            <feColorMatrix in="SourceGraphic" values="0 0 0 0 0.847000 0 0 0 0 0.847000 0 0 0 0 0.847000 0 0 0 1.000000 0"/>
        </filter>
    </defs>
    <g fill="none" fill-rule="evenodd">
        <g>
            <g filter="url(#tbw6rlw6ja)" transform="translate(-315 -599) translate(0 590)">
                <g>
                    <g filter="url(#cq93jxjrhb)" transform="translate(315 9)">
                        <g transform="translate(3 2)">
                            <circle cx="9" cy="5" r="3"/>
                            <path fill="#000" fill-rule="nonzero" d="M9 0C6.243 0 4 2.243 4 5s2.243 5 5 5 5-2.243 5-5-2.243-5-5-5zm0 8C7.346 8 6 6.654 6 5s1.346-3 3-3 3 1.346 3 3-1.346 3-3 3zm9 11v-1c0-3.859-3.141-7-7-7H7c-3.86 0-7 3.141-7 7v1h2v-1c0-2.757 2.243-5 5-5h4c2.757 0 5 2.243 5 5v1h2z"/>
                        </g>
                    </g>
                </g>
            </g>
        </g>
    </g>
</svg>
