<svg xmlns="http://www.w3.org/2000/svg" width="24" height="24" viewBox="0 0 24 24">
    <defs>
        <filter id="u9tk9xd49a">
            <feColorMatrix in="SourceGraphic" values="0 0 0 0 0.678431 0 0 0 0 0.709804 0 0 0 0 0.741176 0 0 0 1.000000 0"/>
        </filter>
        <filter id="z0l75xaiwb">
            <feColorMatrix in="SourceGraphic" values="0 0 0 0 0.847000 0 0 0 0 0.847000 0 0 0 0 0.847000 0 0 0 1.000000 0"/>
        </filter>
    </defs>
    <g fill="none" fill-rule="evenodd">
        <g>
            <g filter="url(#u9tk9xd49a)" transform="translate(-128 -572) translate(0 564)">
                <g>
                    <g filter="url(#z0l75xaiwb)" transform="translate(128 8)">
                        <g fill="#000" fill-rule="nonzero" transform="translate(2 2)">
                            <path d="M10 0C4.486 0 0 4.486 0 10s4.486 10 10 10 10-4.486 10-10S15.514 0 10 0zm0 2c3.213 0 5.982 1.908 7.254 4.648-.302-.139-.581-.301-.895-.498-.409-.258-.873-.551-1.46-.772-.669-.255-1.4-.378-2.234-.378-.834 0-1.565.123-2.234.377-.587.223-1.051.516-1.472.781-.378.237-.703.443-1.103.594C7.41 6.921 6.926 7 6.33 7c-.595 0-1.079-.079-1.524-.248-.4-.151-.728-.358-1.106-.598-.161-.101-.34-.208-.52-.313C4.587 3.542 7.113 2 10 2zm0 16c-4.411 0-8-3.589-8-8 0-.81.123-1.59.348-2.327.094.058.185.11.283.173.411.26.876.554 1.466.776C4.766 8.877 5.496 9 6.33 9c.833 0 1.564-.123 2.235-.377.587-.223 1.051-.516 1.472-.781.378-.237.703-.443 1.103-.595.445-.168.929-.247 1.525-.247.596 0 1.08.079 1.525.248.399.15.725.356 1.114.602.409.258.873.551 1.46.773.363.138.748.229 1.153.291.049.357.083.717.083 1.086 0 4.411-3.589 8-8 8z"/>
                            <circle cx="6.5" cy="11.5" r="1.5"/>
                            <circle cx="13.5" cy="11.5" r="1.5"/>
                        </g>
                    </g>
                </g>
            </g>
        </g>
    </g>
</svg>
